<svg width="380" height="45" viewBox="0 0 380 45" fill="none" xmlns="http://www.w3.org/2000/svg" xmlns:xlink="http://www.w3.org/1999/xlink">
  <!-- Candyland Bank wordmark -->
  <svg x="0" y="0" width="230" height="45" viewBox="0 70 230 45">
<path data-figma-bg-blur-radius="4" d="M26.2543 99.192C25.497 99.192 24.8143 99.0747 24.2063 98.84C23.5983 98.5947 23.081 98.2373 22.6543 97.768C22.2276 97.288 21.897 96.696 21.6623 95.992C21.4276 95.2773 21.3103 94.4453 21.3103 93.496C21.3103 92.5573 21.4276 91.7253 21.6623 91C21.897 90.264 22.2276 89.6507 22.6543 89.16C23.081 88.6587 23.5983 88.28 24.2063 88.024C24.8143 87.768 25.497 87.64 26.2543 87.64C27.289 87.64 28.1423 87.8533 28.8143 88.28C29.4863 88.696 30.025 89.3573 30.4303 90.264L28.3343 91.352C28.185 90.8827 27.9503 90.5093 27.6303 90.232C27.321 89.944 26.8623 89.8 26.2543 89.8C25.5396 89.8 24.9636 90.0347 24.5263 90.504C24.0996 90.9627 23.8863 91.6347 23.8863 92.52V94.312C23.8863 95.1973 24.0996 95.8747 24.5263 96.344C24.9636 96.8027 25.5396 97.032 26.2543 97.032C26.8516 97.032 27.3263 96.872 27.6783 96.552C28.041 96.2213 28.3076 95.8267 28.4783 95.368L30.4623 96.52C30.0463 97.3733 29.497 98.0347 28.8143 98.504C28.1423 98.9627 27.289 99.192 26.2543 99.192ZM38.5992 99L37.7992 96.344H34.0712L33.2712 99H30.8072L34.4872 87.832H37.4952L41.1272 99H38.5992ZM35.9592 90.04H35.8792L34.6472 94.28H37.2072L35.9592 90.04ZM45.7603 93.72L44.6883 91.48H44.6403V99H42.3523V87.832H45.0083L48.0643 93.112L49.1363 95.352H49.1843V87.832H51.4723V99H48.8163L45.7603 93.72ZM53.6104 87.832H57.8184C58.5544 87.832 59.2264 87.9493 59.8344 88.184C60.4424 88.4187 60.9598 88.7707 61.3864 89.24C61.8131 89.6987 62.1438 90.28 62.3784 90.984C62.6131 91.6773 62.7304 92.488 62.7304 93.416C62.7304 94.344 62.6131 95.16 62.3784 95.864C62.1438 96.5573 61.8131 97.1387 61.3864 97.608C60.9598 98.0667 60.4424 98.4133 59.8344 98.648C59.2264 98.8827 58.5544 99 57.8184 99H53.6104V87.832ZM57.8184 96.84C58.5438 96.84 59.1144 96.6373 59.5304 96.232C59.9464 95.8267 60.1544 95.176 60.1544 94.28V92.552C60.1544 91.656 59.9464 91.0053 59.5304 90.6C59.1144 90.1947 58.5438 89.992 57.8184 89.992H56.0424V96.84H57.8184ZM66.4483 99V94.632L62.6243 87.832H65.3443L67.7443 92.28H67.7763L70.0803 87.832H72.7203L68.8963 94.616V99H66.4483ZM73.7829 99V87.832H76.2149V96.84H80.4709V99H73.7829ZM89.0929 99L88.2929 96.344H84.5649L83.7649 99H81.3009L84.9809 87.832H87.9889L91.6209 99H89.0929ZM86.4529 90.04H86.3729L85.1409 94.28H87.7009L86.4529 90.04ZM96.2541 93.72L95.1821 91.48H95.1341V99H92.8461V87.832H95.5021L98.5581 93.112L99.6301 95.352H99.6781V87.832H101.966V99H99.3101L96.2541 93.72ZM104.104 87.832H108.312C109.048 87.832 109.72 87.9493 110.328 88.184C110.936 88.4187 111.454 88.7707 111.88 89.24C112.307 89.6987 112.638 90.28 112.872 90.984C113.107 91.6773 113.224 92.488 113.224 93.416C113.224 94.344 113.107 95.16 112.872 95.864C112.638 96.5573 112.307 97.1387 111.88 97.608C111.454 98.0667 110.936 98.4133 110.328 98.648C109.72 98.8827 109.048 99 108.312 99H104.104V87.832ZM108.312 96.84C109.038 96.84 109.608 96.6373 110.024 96.232C110.44 95.8267 110.648 95.176 110.648 94.28V92.552C110.648 91.656 110.44 91.0053 110.024 90.6C109.608 90.1947 109.038 89.992 108.312 89.992H106.536V96.84H108.312Z" fill="#FF5656"/>
<path data-figma-bg-blur-radius="4" d="M118.657 87.832H124.081C125.009 87.832 125.729 88.0933 126.241 88.616C126.764 89.1387 127.025 89.832 127.025 90.696C127.025 91.1227 126.967 91.4853 126.849 91.784C126.743 92.0827 126.593 92.328 126.401 92.52C126.22 92.712 126.001 92.856 125.745 92.952C125.5 93.0373 125.233 93.0853 124.945 93.096V93.192C125.212 93.192 125.489 93.24 125.777 93.336C126.076 93.432 126.348 93.5867 126.593 93.8C126.839 94.0027 127.041 94.2693 127.201 94.6C127.372 94.9307 127.457 95.336 127.457 95.816C127.457 96.2533 127.383 96.6693 127.233 97.064C127.095 97.448 126.897 97.784 126.641 98.072C126.385 98.36 126.081 98.5893 125.729 98.76C125.377 98.92 124.993 99 124.577 99H118.657V87.832ZM121.089 96.952H123.889C124.209 96.952 124.46 96.8667 124.641 96.696C124.833 96.5147 124.929 96.264 124.929 95.944V95.4C124.929 95.08 124.833 94.8347 124.641 94.664C124.46 94.4827 124.209 94.392 123.889 94.392H121.089V96.952ZM121.089 92.408H123.505C123.825 92.408 124.076 92.3173 124.257 92.136C124.439 91.9547 124.529 91.704 124.529 91.384V90.904C124.529 90.584 124.439 90.3333 124.257 90.152C124.076 89.9707 123.825 89.88 123.505 89.88H121.089V92.408ZM135.655 99L134.855 96.344H131.127L130.327 99H127.863L131.543 87.832H134.551L138.183 99H135.655ZM133.015 90.04H132.935L131.703 94.28H134.263L133.015 90.04ZM142.816 93.72L141.744 91.48H141.696V99H139.408V87.832H142.064L145.12 93.112L146.192 95.352H146.24V87.832H148.528V99H145.872L142.816 93.72ZM154.554 94.136L153.098 95.896V99H150.666V87.832H153.098V93.144H153.194L154.778 90.984L157.29 87.832H160.042L156.282 92.424L160.378 99H157.514L154.554 94.136Z" fill="#FF9595"/>
<path d="M147.897 77.4722C143.992 79.8546 145.435 82.9376 150.868 83.9886C152.991 84.4091 153.16 84.2689 153.16 82.4471C153.16 80.8355 151.038 75.9307 150.359 76.0007C150.274 76.0007 149.17 76.7014 147.897 77.4722Z" fill="#FF5656"/>
<path d="M159.103 80.0648C159.103 81.5362 158.678 83.0777 158.084 83.5682C157.32 84.1989 157.66 84.5492 159.697 85.1098C161.055 85.5302 162.753 86.6513 163.348 87.6323C164.876 89.8745 165.81 89.5241 168.187 85.7404C170.054 82.6573 170.054 82.6573 167.592 80.6954C166.234 79.6443 164.536 78.8035 163.857 78.8035C163.178 78.8035 162.329 78.4532 162.074 78.1028C160.801 76.3511 159.103 77.4722 159.103 80.0648Z" fill="#FF5656"/>
<path d="M172.346 89.2439C172.092 89.5942 170.564 90.365 168.951 90.9956C166.913 91.7664 165.979 92.6773 165.555 94.3589C164.876 97.0916 165.894 97.7223 170.649 97.7223C175.827 97.7223 178.544 93.7984 176.082 89.9446C175.148 88.5432 173.11 88.1928 172.346 89.2439Z" fill="#FF5656"/>
<path d="M159.103 100.455C158.424 100.805 156.386 101.296 154.603 101.506C151.378 101.996 151.378 101.996 155.028 103.748C157.065 104.659 159.358 105.64 160.207 105.85C160.971 106.131 161.65 106.551 161.65 106.901C161.65 108.093 165.13 107.532 168.441 105.78C170.309 104.799 171.837 103.748 171.837 103.398C171.837 102.697 167.932 101.226 165.894 101.226C165.046 101.226 164.027 100.875 163.772 100.525C163.178 99.6842 160.886 99.6141 159.103 100.455Z" fill="#FF5656"/>
<path d="M84.3958 101.856C82.2734 102.347 82.2734 102.347 84.8202 102.837C87.1124 103.188 89.4894 105.71 89.4894 107.742C89.4894 109.214 92.6305 110.265 96.7904 110.335C101.969 110.335 102.648 109.914 100.441 108.022C99.5919 107.252 98.4034 105.5 97.8091 104.239C96.9602 102.277 96.3659 101.926 94.0737 101.926C92.6305 101.926 90.3384 101.786 88.9801 101.646C87.6218 101.436 85.5843 101.576 84.3958 101.856Z" fill="#FF5656"/>
<path d="M103.073 101.786C103.073 102.697 106.214 107.392 107.996 109.073C108.93 109.984 110.543 110.335 114.279 110.335C119.542 110.335 120.136 109.844 117.589 107.952C116.656 107.252 115.297 105.64 114.533 104.309C113.345 102.207 112.751 101.926 110.034 101.926C108.336 101.926 106.044 101.716 105.025 101.506C103.921 101.226 103.073 101.366 103.073 101.786Z" fill="#FF5656"/>
<path d="M119.712 101.856C119.542 102.067 120.985 104.029 122.938 106.131C126.334 109.774 126.758 109.984 130.578 110.195C136.776 110.545 137.794 109.984 135.163 107.672C133.974 106.621 132.446 104.869 131.767 103.748C130.578 101.926 130.069 101.716 125.23 101.576C122.344 101.506 119.882 101.576 119.712 101.856Z" fill="#FF5656"/>
<path d="M137.03 101.646C137.03 101.996 138.474 103.818 140.256 105.78C143.397 109.214 143.567 109.284 148.831 109.634C151.717 109.844 154.264 109.844 154.434 109.704C154.603 109.564 153.245 108.163 151.462 106.551C149.595 105.009 148.067 103.258 148.067 102.767C148.067 102.347 147.387 101.926 146.454 101.926C145.605 101.926 143.143 101.716 140.935 101.506C138.813 101.226 137.03 101.296 137.03 101.646Z" fill="#FF5656"/>
<path d="M81.5094 104.519C81.2547 104.729 81 105.78 81 106.831C81 109.214 84.226 110.895 86.603 109.704C88.0462 109.073 87.9613 109.003 85.9239 108.933C83.8864 108.933 83.5468 108.653 83.5468 106.901C83.5468 104.799 82.5281 103.678 81.5094 104.519Z" fill="#FF5656"/>
<defs>
<clipPath id="bgblur_0_7_50_clip_path" transform="translate(-17.3103 -83.64)"><path d="M26.2543 99.192C25.497 99.192 24.8143 99.0747 24.2063 98.84C23.5983 98.5947 23.081 98.2373 22.6543 97.768C22.2276 97.288 21.897 96.696 21.6623 95.992C21.4276 95.2773 21.3103 94.4453 21.3103 93.496C21.3103 92.5573 21.4276 91.7253 21.6623 91C21.897 90.264 22.2276 89.6507 22.6543 89.16C23.081 88.6587 23.5983 88.28 24.2063 88.024C24.8143 87.768 25.497 87.64 26.2543 87.64C27.289 87.64 28.1423 87.8533 28.8143 88.28C29.4863 88.696 30.025 89.3573 30.4303 90.264L28.3343 91.352C28.185 90.8827 27.9503 90.5093 27.6303 90.232C27.321 89.944 26.8623 89.8 26.2543 89.8C25.5396 89.8 24.9636 90.0347 24.5263 90.504C24.0996 90.9627 23.8863 91.6347 23.8863 92.52V94.312C23.8863 95.1973 24.0996 95.8747 24.5263 96.344C24.9636 96.8027 25.5396 97.032 26.2543 97.032C26.8516 97.032 27.3263 96.872 27.6783 96.552C28.041 96.2213 28.3076 95.8267 28.4783 95.368L30.4623 96.52C30.0463 97.3733 29.497 98.0347 28.8143 98.504C28.1423 98.9627 27.289 99.192 26.2543 99.192ZM38.5992 99L37.7992 96.344H34.0712L33.2712 99H30.8072L34.4872 87.832H37.4952L41.1272 99H38.5992ZM35.9592 90.04H35.8792L34.6472 94.28H37.2072L35.9592 90.04ZM45.7603 93.72L44.6883 91.48H44.6403V99H42.3523V87.832H45.0083L48.0643 93.112L49.1363 95.352H49.1843V87.832H51.4723V99H48.8163L45.7603 93.72ZM53.6104 87.832H57.8184C58.5544 87.832 59.2264 87.9493 59.8344 88.184C60.4424 88.4187 60.9598 88.7707 61.3864 89.24C61.8131 89.6987 62.1438 90.28 62.3784 90.984C62.6131 91.6773 62.7304 92.488 62.7304 93.416C62.7304 94.344 62.6131 95.16 62.3784 95.864C62.1438 96.5573 61.8131 97.1387 61.3864 97.608C60.9598 98.0667 60.4424 98.4133 59.8344 98.648C59.2264 98.8827 58.5544 99 57.8184 99H53.6104V87.832ZM57.8184 96.84C58.5438 96.84 59.1144 96.6373 59.5304 96.232C59.9464 95.8267 60.1544 95.176 60.1544 94.28V92.552C60.1544 91.656 59.9464 91.0053 59.5304 90.6C59.1144 90.1947 58.5438 89.992 57.8184 89.992H56.0424V96.84H57.8184ZM66.4483 99V94.632L62.6243 87.832H65.3443L67.7443 92.28H67.7763L70.0803 87.832H72.7203L68.8963 94.616V99H66.4483ZM73.7829 99V87.832H76.2149V96.84H80.4709V99H73.7829ZM89.0929 99L88.2929 96.344H84.5649L83.7649 99H81.3009L84.9809 87.832H87.9889L91.6209 99H89.0929ZM86.4529 90.04H86.3729L85.1409 94.28H87.7009L86.4529 90.04ZM96.2541 93.72L95.1821 91.48H95.1341V99H92.8461V87.832H95.5021L98.5581 93.112L99.6301 95.352H99.6781V87.832H101.966V99H99.3101L96.2541 93.72ZM104.104 87.832H108.312C109.048 87.832 109.72 87.9493 110.328 88.184C110.936 88.4187 111.454 88.7707 111.88 89.24C112.307 89.6987 112.638 90.28 112.872 90.984C113.107 91.6773 113.224 92.488 113.224 93.416C113.224 94.344 113.107 95.16 112.872 95.864C112.638 96.5573 112.307 97.1387 111.88 97.608C111.454 98.0667 110.936 98.4133 110.328 98.648C109.72 98.8827 109.048 99 108.312 99H104.104V87.832ZM108.312 96.84C109.038 96.84 109.608 96.6373 110.024 96.232C110.44 95.8267 110.648 95.176 110.648 94.28V92.552C110.648 91.656 110.44 91.0053 110.024 90.6C109.608 90.1947 109.038 89.992 108.312 89.992H106.536V96.84H108.312Z"/>
</clipPath><clipPath id="bgblur_1_7_50_clip_path" transform="translate(-114.657 -83.832)"><path d="M118.657 87.832H124.081C125.009 87.832 125.729 88.0933 126.241 88.616C126.764 89.1387 127.025 89.832 127.025 90.696C127.025 91.1227 126.967 91.4853 126.849 91.784C126.743 92.0827 126.593 92.328 126.401 92.52C126.22 92.712 126.001 92.856 125.745 92.952C125.5 93.0373 125.233 93.0853 124.945 93.096V93.192C125.212 93.192 125.489 93.24 125.777 93.336C126.076 93.432 126.348 93.5867 126.593 93.8C126.839 94.0027 127.041 94.2693 127.201 94.6C127.372 94.9307 127.457 95.336 127.457 95.816C127.457 96.2533 127.383 96.6693 127.233 97.064C127.095 97.448 126.897 97.784 126.641 98.072C126.385 98.36 126.081 98.5893 125.729 98.76C125.377 98.92 124.993 99 124.577 99H118.657V87.832ZM121.089 96.952H123.889C124.209 96.952 124.46 96.8667 124.641 96.696C124.833 96.5147 124.929 96.264 124.929 95.944V95.4C124.929 95.08 124.833 94.8347 124.641 94.664C124.46 94.4827 124.209 94.392 123.889 94.392H121.089V96.952ZM121.089 92.408H123.505C123.825 92.408 124.076 92.3173 124.257 92.136C124.439 91.9547 124.529 91.704 124.529 91.384V90.904C124.529 90.584 124.439 90.3333 124.257 90.152C124.076 89.9707 123.825 89.88 123.505 89.88H121.089V92.408ZM135.655 99L134.855 96.344H131.127L130.327 99H127.863L131.543 87.832H134.551L138.183 99H135.655ZM133.015 90.04H132.935L131.703 94.28H134.263L133.015 90.04ZM142.816 93.72L141.744 91.48H141.696V99H139.408V87.832H142.064L145.12 93.112L146.192 95.352H146.24V87.832H148.528V99H145.872L142.816 93.72ZM154.554 94.136L153.098 95.896V99H150.666V87.832H153.098V93.144H153.194L154.778 90.984L157.29 87.832H160.042L156.282 92.424L160.378 99H157.514L154.554 94.136Z"/>
</clipPath></defs>
</svg>
  </svg>
  <!-- Divider -->
  <line x1="244" y1="6" x2="244" y2="39" stroke="currentColor" stroke-opacity="0.35" stroke-width="1"/>
  <!-- IBM wordmark -->
  <svg x="259" y="0" width="121" height="45" viewBox="0 0 1800 672" preserveAspectRatio="xMidYMid meet">
<g transform="translate(0.000000,672.000000) scale(0.100000,-0.100000)" fill="#ffffff" stroke="none"> <path d="M0 6490 l0 -230 1605 0 c1537 1 1605 1 1614 19 6 10 8 49 6 87 -3 38 -5 133 -5 212 l0 142 -1610 0 -1610 0 0 -230z"/> <path d="M3730 6496 c0 -194 2 -225 16 -230 26 -10 4564 -7 4564 4 0 10 -154 130 -166 130 -4 0 -21 11 -38 24 -17 13 -65 40 -106 62 -41 21 -82 43 -90 49 -8 6 -42 20 -75 30 -33 11 -66 23 -73 28 -7 6 -29 13 -50 17 -20 4 -81 20 -135 34 -53 14 -119 26 -145 27 -70 1 -157 22 -155 37 2 9 -372 12 -1772 12 l-1775 0 0 -224z"/> <path d="M9302 6493 l3 -228 1380 -2 c758 -2 1383 1 1388 6 4 4 3 25 -2 47 -15 60 -91 286 -107 317 -8 16 -14 42 -14 58 l0 29 -1325 0 -1325 0 2 -227z"/> <path d="M14087 6703 c-8 -27 -57 -165 -66 -188 -5 -11 -18 -49 -29 -85 -12 -36 -28 -84 -37 -108 -8 -24 -13 -47 -10 -52 3 -6 578 -8 1388 -7 l1382 2 3 228 2 227 -1314 0 c-1242 0 -1314 -1 -1319 -17z"/> <path d="M0 5585 l0 -215 1611 2 1611 3 0 210 0 210 -1611 3 -1611 2 0 -215z"/> <path d="M3730 5585 l0 -215 2568 0 c1413 0 2571 3 2574 6 3 3 -5 35 -18 71 -13 36 -24 73 -24 82 0 9 -11 38 -24 66 -13 27 -41 85 -61 128 l-37 77 -2489 0 -2489 0 0 -215z"/> <path d="M9304 5787 c-3 -8 -4 -104 -2 -213 l3 -199 1548 -3 c993 -1 1547 1 1547 8 0 9 -10 35 -45 115 -7 17 -16 41 -18 55 -6 29 -53 170 -73 218 l-14 32 -1470 0 c-1225 0 -1471 -2 -1476 -13z"/> <path d="M13756 5757 c-9 -23 -16 -49 -16 -56 0 -7 -6 -27 -14 -44 -8 -18 -24 -62 -35 -99 -11 -36 -24 -75 -29 -85 -10 -20 -32 -85 -32 -96 0 -4 695 -7 1545 -7 l1545 0 0 215 0 215 -1474 0 -1473 0 -17 -43z"/> <path d="M945 4902 c-6 -4 -8 -83 -5 -217 l5 -210 667 -2 c367 -1 670 2 672 6 4 6 10 374 7 419 -1 9 -141 12 -668 12 -368 0 -672 -4 -678 -8z"/> <path d="M4652 4693 l3 -218 669 -3 c388 -2 673 1 678 6 5 5 9 103 9 218 l0 209 -681 3 -680 2 2 -217z"/> <path d="M7444 4897 c-2 -7 -3 -105 -2 -217 l3 -205 707 -3 c777 -3 738 -6 738 57 0 15 7 50 15 77 8 27 15 76 16 109 0 33 4 87 8 120 5 40 4 62 -3 67 -6 4 -341 8 -744 8 -585 0 -734 -3 -738 -13z"/> <path d="M10247 4903 c-4 -3 -7 -100 -7 -214 0 -179 2 -208 16 -213 9 -3 562 -6 1230 -6 l1214 0 0 26 c0 14 -5 35 -12 47 -6 12 -15 35 -19 52 -8 34 -26 86 -44 130 -20 49 -36 98 -45 133 -5 19 -11 37 -15 40 -9 9 -2309 14 -2318 5z"/> <path d="M13466 4895 c-8 -9 -20 -34 -26 -57 -7 -22 -15 -48 -20 -57 -4 -9 -16 -43 -26 -76 -10 -33 -24 -69 -31 -80 -7 -11 -13 -28 -13 -38 0 -11 -7 -34 -16 -53 -33 -68 -130 -63 1200 -64 757 0 1215 4 1231 10 l25 10 -2 207 -3 208 -1152 3 c-1032 2 -1153 1 -1167 -13z"/> <path d="M946 4012 c-4 -7 -9 -328 -6 -409 0 -10 142 -13 675 -13 371 0 675 3 675 8 2 226 2 391 1 405 -1 16 -40 17 -670 17 -369 0 -672 -4 -675 -8z"/> <path d="M4652 3802 c2 -166 6 -217 16 -216 6 1 833 2 1837 3 l1825 1 102 103 c57 57 114 121 128 141 14 21 33 45 43 54 9 9 17 20 17 25 0 5 14 26 30 47 17 21 30 43 30 49 0 8 -537 11 -2015 11 l-2015 0 2 -218z"/> <path d="M10252 4012 c-9 -7 -12 -56 -10 -213 l3 -204 672 -3 673 -2 5 22 c2 13 4 73 3 133 -1 61 -1 138 0 173 2 59 4 63 23 60 27 -4 31 -12 63 -113 14 -44 36 -111 50 -149 15 -38 26 -77 26 -88 0 -11 11 -23 26 -28 16 -7 466 -9 1241 -8 1069 3 1217 5 1223 18 4 8 12 25 18 37 7 12 16 39 21 60 11 45 72 216 91 256 15 30 35 35 44 11 3 -9 6 -98 6 -199 0 -138 3 -184 13 -186 6 -2 311 -2 677 1 l665 5 0 210 0 210 -1306 3 c-1034 2 -1308 -1 -1320 -10 -8 -7 -30 -60 -48 -118 -18 -58 -37 -112 -42 -120 -14 -23 -17 -32 -24 -72 -4 -24 -11 -38 -20 -38 -25 0 -55 38 -55 69 0 16 -7 34 -15 41 -8 7 -15 23 -15 36 0 13 -7 40 -16 61 -29 67 -33 77 -42 113 l-8 35 -1305 2 c-717 2 -1310 -1 -1317 -5z"/> <path d="M946 3122 c-4 -7 -10 -365 -7 -410 1 -10 140 -12 677 -10 l676 3 0 80 c1 44 0 140 -1 213 l-1 132 -669 0 c-369 0 -672 -4 -675 -8z"/> <path d="M4650 2915 l0 -215 2011 -2 c1106 -2 2013 1 2016 5 3 5 -2 16 -11 26 -9 10 -16 21 -16 25 0 4 -5 12 -10 19 -6 7 -33 43 -62 81 -28 38 -58 76 -67 86 -9 9 -38 40 -65 69 -27 29 -68 68 -91 86 l-42 35 -1831 0 -1832 0 0 -215z"/> <path d="M10247 3123 c-4 -3 -7 -100 -7 -215 l0 -208 678 2 677 3 0 210 0 210 -671 3 c-369 1 -674 -1 -677 -5z"/> <path d="M11950 3119 c0 -13 47 -158 66 -204 6 -16 19 -52 28 -80 9 -27 24 -69 33 -92 l16 -43 919 0 918 0 14 33 c24 55 63 166 76 212 13 46 31 97 46 127 8 14 14 33 14 42 0 15 -97 16 -1065 16 -779 0 -1065 -3 -1065 -11z"/> <path d="M14430 2915 l0 -215 680 0 680 0 -2 213 -3 212 -677 2 -678 3 0 -215z"/> <path d="M1587 2230 l-647 -5 -3 -213 -2 -212 679 2 679 3 -2 209 c-1 115 -4 213 -7 218 -3 4 -15 7 -27 6 -12 -2 -313 -5 -670 -8z"/> <path d="M4654 2231 c-2 -2 -4 -100 -4 -218 l0 -213 680 2 681 3 2 213 c1 116 0 212 -3 212 -3 0 -308 1 -678 3 -371 1 -676 0 -678 -2z"/> <path d="M10903 2233 l-662 -3 -3 -203 c-2 -111 1 -208 6 -215 7 -9 150 -12 680 -10 l671 3 3 209 c2 163 0 211 -10 217 -7 5 -15 8 -18 6 -3 -1 -303 -3 -667 -4z"/> <path d="M12353 2232 l-102 -3 11 -27 c6 -15 17 -41 24 -59 8 -17 14 -40 14 -51 0 -11 8 -35 17 -54 9 -18 22 -45 30 -60 7 -14 13 -37 13 -50 0 -13 6 -33 14 -44 8 -11 16 -33 18 -49 l3 -30 618 -3 c583 -2 617 -1 617 15 0 16 23 84 49 148 13 32 32 87 41 120 15 54 35 102 49 119 8 9 11 19 9 22 -6 5 -1251 11 -1425 6z"/> <path d="M14458 2232 l-28 -3 0 -215 0 -214 678 2 677 3 3 213 2 212 -92 0 c-51 0 -345 1 -653 2 -308 2 -572 2 -587 0z"/> <path d="M7441 2015 l2 -215 746 2 746 3 -2 30 c-7 142 -16 234 -25 257 -5 15 -13 51 -17 80 l-6 53 -723 3 -723 2 2 -215z"/> <path d="M1592 1343 l-1592 -3 0 -210 0 -210 1553 -2 c853 -1 1576 -2 1605 -3 30 0 56 3 59 8 7 12 6 404 -2 417 -3 5 -12 9 -18 8 -7 -2 -729 -4 -1605 -5z"/> <path d="M3747 1342 c-14 -3 -17 -27 -19 -205 -2 -111 -1 -205 2 -209 6 -8 4966 -11 4979 -4 7 4 16 23 90 176 17 36 31 73 31 83 0 10 6 30 14 45 7 15 17 46 21 70 l7 42 -39 0 c-1992 3 -5074 4 -5086 2z"/> <path d="M12577 1338 c-9 -6 -9 -12 0 -26 6 -11 15 -37 19 -58 3 -22 10 -44 15 -49 9 -12 66 -173 79 -224 16 -62 8 -61 323 -62 202 -1 291 2 301 10 8 7 16 26 19 44 2 18 14 57 27 87 12 30 26 69 31 85 5 17 13 39 17 50 19 43 44 125 40 135 -4 12 -852 20 -871 8z"/> <path d="M14502 1342 l-72 -3 2 -210 3 -209 1140 -1 1140 -1 0 211 0 211 -1070 3 c-588 1 -1103 1 -1143 -1z"/> <path d="M9304 1327 c-2 -7 -3 -101 -2 -210 l3 -197 1138 -1 c626 0 1142 3 1147 6 11 7 14 373 4 399 -6 14 -116 16 -1145 16 -916 0 -1141 -3 -1145 -13z"/> <path d="M17503 706 c-111 -41 -171 -93 -215 -185 -67 -142 -43 -275 70 -393 70 -72 138 -100 242 -100 57 0 100 6 130 18 47 18 160 102 160 118 0 5 6 17 13 25 34 40 50 112 44 200 -8 123 -20 152 -98 230 -49 50 -84 70 -168 95 -70 21 -103 20 -178 -8z m208 -37 c29 -11 69 -33 90 -50 47 -37 109 -129 109 -163 0 -13 5 -37 10 -52 20 -52 -23 -183 -79 -239 -64 -65 -84 -77 -171 -103 -41 -13 -118 -13 -126 -1 -3 5 -15 9 -27 9 -59 1 -177 109 -213 195 -22 54 -19 177 7 228 29 56 84 123 117 141 115 64 188 73 283 35z"/> <path d="M17462 373 l3 -167 30 -1 c30 0 30 1 35 60 l5 60 34 0 c30 0 37 -5 58 -44 28 -54 51 -81 69 -81 24 0 26 20 5 54 -24 39 -27 88 -7 106 27 22 38 75 25 118 -15 50 -46 62 -167 62 l-92 0 2 -167z m189 111 c12 -11 19 -30 19 -55 0 -47 -22 -61 -88 -57 l-47 3 -3 53 c-4 69 9 86 61 79 21 -3 47 -13 58 -23z"/> <path d="M0 245 l0 -215 1609 0 c1278 0 1610 3 1613 13 2 6 2 103 0 215 l-4 202 -1609 0 -1609 0 0 -215z"/> <path d="M3743 454 c-10 -4 -13 -57 -13 -215 l0 -209 1826 0 c1624 0 1836 2 1913 16 47 9 100 20 116 26 17 6 48 14 70 18 41 8 84 22 142 47 17 7 35 13 40 13 15 0 197 91 241 121 24 16 45 29 48 29 11 0 194 142 194 150 0 9 -4556 12 -4577 4z"/> <path d="M9304 451 c-2 -2 -4 -96 -4 -207 0 -184 2 -204 18 -211 9 -4 526 -7 1149 -5 l1132 2 0 203 c0 111 -3 207 -7 212 -7 10 -2278 16 -2288 6z"/> <path d="M12886 453 c-7 -7 18 -87 97 -303 3 -8 8 -27 11 -42 7 -31 36 -39 36 -10 0 10 18 69 41 132 46 131 69 200 69 215 0 10 -245 17 -254 8z"/> <path d="M14432 242 l3 -212 1140 0 1140 0 0 210 0 211 -1143 2 -1142 2 2 -213z"/> </g>
  </svg>
</svg>