<svg width="230" height="45" viewBox="0 70 230 45" fill="none" xmlns="http://www.w3.org/2000/svg">
<path data-figma-bg-blur-radius="4" d="M26.2543 99.192C25.497 99.192 24.8143 99.0747 24.2063 98.84C23.5983 98.5947 23.081 98.2373 22.6543 97.768C22.2276 97.288 21.897 96.696 21.6623 95.992C21.4276 95.2773 21.3103 94.4453 21.3103 93.496C21.3103 92.5573 21.4276 91.7253 21.6623 91C21.897 90.264 22.2276 89.6507 22.6543 89.16C23.081 88.6587 23.5983 88.28 24.2063 88.024C24.8143 87.768 25.497 87.64 26.2543 87.64C27.289 87.64 28.1423 87.8533 28.8143 88.28C29.4863 88.696 30.025 89.3573 30.4303 90.264L28.3343 91.352C28.185 90.8827 27.9503 90.5093 27.6303 90.232C27.321 89.944 26.8623 89.8 26.2543 89.8C25.5396 89.8 24.9636 90.0347 24.5263 90.504C24.0996 90.9627 23.8863 91.6347 23.8863 92.52V94.312C23.8863 95.1973 24.0996 95.8747 24.5263 96.344C24.9636 96.8027 25.5396 97.032 26.2543 97.032C26.8516 97.032 27.3263 96.872 27.6783 96.552C28.041 96.2213 28.3076 95.8267 28.4783 95.368L30.4623 96.52C30.0463 97.3733 29.497 98.0347 28.8143 98.504C28.1423 98.9627 27.289 99.192 26.2543 99.192ZM38.5992 99L37.7992 96.344H34.0712L33.2712 99H30.8072L34.4872 87.832H37.4952L41.1272 99H38.5992ZM35.9592 90.04H35.8792L34.6472 94.28H37.2072L35.9592 90.04ZM45.7603 93.72L44.6883 91.48H44.6403V99H42.3523V87.832H45.0083L48.0643 93.112L49.1363 95.352H49.1843V87.832H51.4723V99H48.8163L45.7603 93.72ZM53.6104 87.832H57.8184C58.5544 87.832 59.2264 87.9493 59.8344 88.184C60.4424 88.4187 60.9598 88.7707 61.3864 89.24C61.8131 89.6987 62.1438 90.28 62.3784 90.984C62.6131 91.6773 62.7304 92.488 62.7304 93.416C62.7304 94.344 62.6131 95.16 62.3784 95.864C62.1438 96.5573 61.8131 97.1387 61.3864 97.608C60.9598 98.0667 60.4424 98.4133 59.8344 98.648C59.2264 98.8827 58.5544 99 57.8184 99H53.6104V87.832ZM57.8184 96.84C58.5438 96.84 59.1144 96.6373 59.5304 96.232C59.9464 95.8267 60.1544 95.176 60.1544 94.28V92.552C60.1544 91.656 59.9464 91.0053 59.5304 90.6C59.1144 90.1947 58.5438 89.992 57.8184 89.992H56.0424V96.84H57.8184ZM66.4483 99V94.632L62.6243 87.832H65.3443L67.7443 92.28H67.7763L70.0803 87.832H72.7203L68.8963 94.616V99H66.4483ZM73.7829 99V87.832H76.2149V96.84H80.4709V99H73.7829ZM89.0929 99L88.2929 96.344H84.5649L83.7649 99H81.3009L84.9809 87.832H87.9889L91.6209 99H89.0929ZM86.4529 90.04H86.3729L85.1409 94.28H87.7009L86.4529 90.04ZM96.2541 93.72L95.1821 91.48H95.1341V99H92.8461V87.832H95.5021L98.5581 93.112L99.6301 95.352H99.6781V87.832H101.966V99H99.3101L96.2541 93.72ZM104.104 87.832H108.312C109.048 87.832 109.72 87.9493 110.328 88.184C110.936 88.4187 111.454 88.7707 111.88 89.24C112.307 89.6987 112.638 90.28 112.872 90.984C113.107 91.6773 113.224 92.488 113.224 93.416C113.224 94.344 113.107 95.16 112.872 95.864C112.638 96.5573 112.307 97.1387 111.88 97.608C111.454 98.0667 110.936 98.4133 110.328 98.648C109.72 98.8827 109.048 99 108.312 99H104.104V87.832ZM108.312 96.84C109.038 96.84 109.608 96.6373 110.024 96.232C110.44 95.8267 110.648 95.176 110.648 94.28V92.552C110.648 91.656 110.44 91.0053 110.024 90.6C109.608 90.1947 109.038 89.992 108.312 89.992H106.536V96.84H108.312Z" fill="#FF5656"/>
<path data-figma-bg-blur-radius="4" d="M118.657 87.832H124.081C125.009 87.832 125.729 88.0933 126.241 88.616C126.764 89.1387 127.025 89.832 127.025 90.696C127.025 91.1227 126.967 91.4853 126.849 91.784C126.743 92.0827 126.593 92.328 126.401 92.52C126.22 92.712 126.001 92.856 125.745 92.952C125.5 93.0373 125.233 93.0853 124.945 93.096V93.192C125.212 93.192 125.489 93.24 125.777 93.336C126.076 93.432 126.348 93.5867 126.593 93.8C126.839 94.0027 127.041 94.2693 127.201 94.6C127.372 94.9307 127.457 95.336 127.457 95.816C127.457 96.2533 127.383 96.6693 127.233 97.064C127.095 97.448 126.897 97.784 126.641 98.072C126.385 98.36 126.081 98.5893 125.729 98.76C125.377 98.92 124.993 99 124.577 99H118.657V87.832ZM121.089 96.952H123.889C124.209 96.952 124.46 96.8667 124.641 96.696C124.833 96.5147 124.929 96.264 124.929 95.944V95.4C124.929 95.08 124.833 94.8347 124.641 94.664C124.46 94.4827 124.209 94.392 123.889 94.392H121.089V96.952ZM121.089 92.408H123.505C123.825 92.408 124.076 92.3173 124.257 92.136C124.439 91.9547 124.529 91.704 124.529 91.384V90.904C124.529 90.584 124.439 90.3333 124.257 90.152C124.076 89.9707 123.825 89.88 123.505 89.88H121.089V92.408ZM135.655 99L134.855 96.344H131.127L130.327 99H127.863L131.543 87.832H134.551L138.183 99H135.655ZM133.015 90.04H132.935L131.703 94.28H134.263L133.015 90.04ZM142.816 93.72L141.744 91.48H141.696V99H139.408V87.832H142.064L145.12 93.112L146.192 95.352H146.24V87.832H148.528V99H145.872L142.816 93.72ZM154.554 94.136L153.098 95.896V99H150.666V87.832H153.098V93.144H153.194L154.778 90.984L157.29 87.832H160.042L156.282 92.424L160.378 99H157.514L154.554 94.136Z" fill="#FF9595"/>
<path d="M147.897 77.4722C143.992 79.8546 145.435 82.9376 150.868 83.9886C152.991 84.4091 153.16 84.2689 153.16 82.4471C153.16 80.8355 151.038 75.9307 150.359 76.0007C150.274 76.0007 149.17 76.7014 147.897 77.4722Z" fill="#FF5656"/>
<path d="M159.103 80.0648C159.103 81.5362 158.678 83.0777 158.084 83.5682C157.32 84.1989 157.66 84.5492 159.697 85.1098C161.055 85.5302 162.753 86.6513 163.348 87.6323C164.876 89.8745 165.81 89.5241 168.187 85.7404C170.054 82.6573 170.054 82.6573 167.592 80.6954C166.234 79.6443 164.536 78.8035 163.857 78.8035C163.178 78.8035 162.329 78.4532 162.074 78.1028C160.801 76.3511 159.103 77.4722 159.103 80.0648Z" fill="#FF5656"/>
<path d="M172.346 89.2439C172.092 89.5942 170.564 90.365 168.951 90.9956C166.913 91.7664 165.979 92.6773 165.555 94.3589C164.876 97.0916 165.894 97.7223 170.649 97.7223C175.827 97.7223 178.544 93.7984 176.082 89.9446C175.148 88.5432 173.11 88.1928 172.346 89.2439Z" fill="#FF5656"/>
<path d="M159.103 100.455C158.424 100.805 156.386 101.296 154.603 101.506C151.378 101.996 151.378 101.996 155.028 103.748C157.065 104.659 159.358 105.64 160.207 105.85C160.971 106.131 161.65 106.551 161.65 106.901C161.65 108.093 165.13 107.532 168.441 105.78C170.309 104.799 171.837 103.748 171.837 103.398C171.837 102.697 167.932 101.226 165.894 101.226C165.046 101.226 164.027 100.875 163.772 100.525C163.178 99.6842 160.886 99.6141 159.103 100.455Z" fill="#FF5656"/>
<path d="M84.3958 101.856C82.2734 102.347 82.2734 102.347 84.8202 102.837C87.1124 103.188 89.4894 105.71 89.4894 107.742C89.4894 109.214 92.6305 110.265 96.7904 110.335C101.969 110.335 102.648 109.914 100.441 108.022C99.5919 107.252 98.4034 105.5 97.8091 104.239C96.9602 102.277 96.3659 101.926 94.0737 101.926C92.6305 101.926 90.3384 101.786 88.9801 101.646C87.6218 101.436 85.5843 101.576 84.3958 101.856Z" fill="#FF5656"/>
<path d="M103.073 101.786C103.073 102.697 106.214 107.392 107.996 109.073C108.93 109.984 110.543 110.335 114.279 110.335C119.542 110.335 120.136 109.844 117.589 107.952C116.656 107.252 115.297 105.64 114.533 104.309C113.345 102.207 112.751 101.926 110.034 101.926C108.336 101.926 106.044 101.716 105.025 101.506C103.921 101.226 103.073 101.366 103.073 101.786Z" fill="#FF5656"/>
<path d="M119.712 101.856C119.542 102.067 120.985 104.029 122.938 106.131C126.334 109.774 126.758 109.984 130.578 110.195C136.776 110.545 137.794 109.984 135.163 107.672C133.974 106.621 132.446 104.869 131.767 103.748C130.578 101.926 130.069 101.716 125.23 101.576C122.344 101.506 119.882 101.576 119.712 101.856Z" fill="#FF5656"/>
<path d="M137.03 101.646C137.03 101.996 138.474 103.818 140.256 105.78C143.397 109.214 143.567 109.284 148.831 109.634C151.717 109.844 154.264 109.844 154.434 109.704C154.603 109.564 153.245 108.163 151.462 106.551C149.595 105.009 148.067 103.258 148.067 102.767C148.067 102.347 147.387 101.926 146.454 101.926C145.605 101.926 143.143 101.716 140.935 101.506C138.813 101.226 137.03 101.296 137.03 101.646Z" fill="#FF5656"/>
<path d="M81.5094 104.519C81.2547 104.729 81 105.78 81 106.831C81 109.214 84.226 110.895 86.603 109.704C88.0462 109.073 87.9613 109.003 85.9239 108.933C83.8864 108.933 83.5468 108.653 83.5468 106.901C83.5468 104.799 82.5281 103.678 81.5094 104.519Z" fill="#FF5656"/>
<defs>
<clipPath id="bgblur_0_7_50_clip_path" transform="translate(-17.3103 -83.64)"><path d="M26.2543 99.192C25.497 99.192 24.8143 99.0747 24.2063 98.84C23.5983 98.5947 23.081 98.2373 22.6543 97.768C22.2276 97.288 21.897 96.696 21.6623 95.992C21.4276 95.2773 21.3103 94.4453 21.3103 93.496C21.3103 92.5573 21.4276 91.7253 21.6623 91C21.897 90.264 22.2276 89.6507 22.6543 89.16C23.081 88.6587 23.5983 88.28 24.2063 88.024C24.8143 87.768 25.497 87.64 26.2543 87.64C27.289 87.64 28.1423 87.8533 28.8143 88.28C29.4863 88.696 30.025 89.3573 30.4303 90.264L28.3343 91.352C28.185 90.8827 27.9503 90.5093 27.6303 90.232C27.321 89.944 26.8623 89.8 26.2543 89.8C25.5396 89.8 24.9636 90.0347 24.5263 90.504C24.0996 90.9627 23.8863 91.6347 23.8863 92.52V94.312C23.8863 95.1973 24.0996 95.8747 24.5263 96.344C24.9636 96.8027 25.5396 97.032 26.2543 97.032C26.8516 97.032 27.3263 96.872 27.6783 96.552C28.041 96.2213 28.3076 95.8267 28.4783 95.368L30.4623 96.52C30.0463 97.3733 29.497 98.0347 28.8143 98.504C28.1423 98.9627 27.289 99.192 26.2543 99.192ZM38.5992 99L37.7992 96.344H34.0712L33.2712 99H30.8072L34.4872 87.832H37.4952L41.1272 99H38.5992ZM35.9592 90.04H35.8792L34.6472 94.28H37.2072L35.9592 90.04ZM45.7603 93.72L44.6883 91.48H44.6403V99H42.3523V87.832H45.0083L48.0643 93.112L49.1363 95.352H49.1843V87.832H51.4723V99H48.8163L45.7603 93.72ZM53.6104 87.832H57.8184C58.5544 87.832 59.2264 87.9493 59.8344 88.184C60.4424 88.4187 60.9598 88.7707 61.3864 89.24C61.8131 89.6987 62.1438 90.28 62.3784 90.984C62.6131 91.6773 62.7304 92.488 62.7304 93.416C62.7304 94.344 62.6131 95.16 62.3784 95.864C62.1438 96.5573 61.8131 97.1387 61.3864 97.608C60.9598 98.0667 60.4424 98.4133 59.8344 98.648C59.2264 98.8827 58.5544 99 57.8184 99H53.6104V87.832ZM57.8184 96.84C58.5438 96.84 59.1144 96.6373 59.5304 96.232C59.9464 95.8267 60.1544 95.176 60.1544 94.28V92.552C60.1544 91.656 59.9464 91.0053 59.5304 90.6C59.1144 90.1947 58.5438 89.992 57.8184 89.992H56.0424V96.84H57.8184ZM66.4483 99V94.632L62.6243 87.832H65.3443L67.7443 92.28H67.7763L70.0803 87.832H72.7203L68.8963 94.616V99H66.4483ZM73.7829 99V87.832H76.2149V96.84H80.4709V99H73.7829ZM89.0929 99L88.2929 96.344H84.5649L83.7649 99H81.3009L84.9809 87.832H87.9889L91.6209 99H89.0929ZM86.4529 90.04H86.3729L85.1409 94.28H87.7009L86.4529 90.04ZM96.2541 93.72L95.1821 91.48H95.1341V99H92.8461V87.832H95.5021L98.5581 93.112L99.6301 95.352H99.6781V87.832H101.966V99H99.3101L96.2541 93.72ZM104.104 87.832H108.312C109.048 87.832 109.72 87.9493 110.328 88.184C110.936 88.4187 111.454 88.7707 111.88 89.24C112.307 89.6987 112.638 90.28 112.872 90.984C113.107 91.6773 113.224 92.488 113.224 93.416C113.224 94.344 113.107 95.16 112.872 95.864C112.638 96.5573 112.307 97.1387 111.88 97.608C111.454 98.0667 110.936 98.4133 110.328 98.648C109.72 98.8827 109.048 99 108.312 99H104.104V87.832ZM108.312 96.84C109.038 96.84 109.608 96.6373 110.024 96.232C110.44 95.8267 110.648 95.176 110.648 94.28V92.552C110.648 91.656 110.44 91.0053 110.024 90.6C109.608 90.1947 109.038 89.992 108.312 89.992H106.536V96.84H108.312Z"/>
</clipPath><clipPath id="bgblur_1_7_50_clip_path" transform="translate(-114.657 -83.832)"><path d="M118.657 87.832H124.081C125.009 87.832 125.729 88.0933 126.241 88.616C126.764 89.1387 127.025 89.832 127.025 90.696C127.025 91.1227 126.967 91.4853 126.849 91.784C126.743 92.0827 126.593 92.328 126.401 92.52C126.22 92.712 126.001 92.856 125.745 92.952C125.5 93.0373 125.233 93.0853 124.945 93.096V93.192C125.212 93.192 125.489 93.24 125.777 93.336C126.076 93.432 126.348 93.5867 126.593 93.8C126.839 94.0027 127.041 94.2693 127.201 94.6C127.372 94.9307 127.457 95.336 127.457 95.816C127.457 96.2533 127.383 96.6693 127.233 97.064C127.095 97.448 126.897 97.784 126.641 98.072C126.385 98.36 126.081 98.5893 125.729 98.76C125.377 98.92 124.993 99 124.577 99H118.657V87.832ZM121.089 96.952H123.889C124.209 96.952 124.46 96.8667 124.641 96.696C124.833 96.5147 124.929 96.264 124.929 95.944V95.4C124.929 95.08 124.833 94.8347 124.641 94.664C124.46 94.4827 124.209 94.392 123.889 94.392H121.089V96.952ZM121.089 92.408H123.505C123.825 92.408 124.076 92.3173 124.257 92.136C124.439 91.9547 124.529 91.704 124.529 91.384V90.904C124.529 90.584 124.439 90.3333 124.257 90.152C124.076 89.9707 123.825 89.88 123.505 89.88H121.089V92.408ZM135.655 99L134.855 96.344H131.127L130.327 99H127.863L131.543 87.832H134.551L138.183 99H135.655ZM133.015 90.04H132.935L131.703 94.28H134.263L133.015 90.04ZM142.816 93.72L141.744 91.48H141.696V99H139.408V87.832H142.064L145.12 93.112L146.192 95.352H146.24V87.832H148.528V99H145.872L142.816 93.72ZM154.554 94.136L153.098 95.896V99H150.666V87.832H153.098V93.144H153.194L154.778 90.984L157.29 87.832H160.042L156.282 92.424L160.378 99H157.514L154.554 94.136Z"/>
</clipPath></defs>
</svg>
