<?xml version="1.0" standalone="no"?> <!DOCTYPE svg PUBLIC "-//W3C//DTD SVG 20010904//EN" "http://www.w3.org/TR/2001/REC-SVG-20010904/DTD/svg10.dtd"> <svg version="1.0" xmlns="http://www.w3.org/2000/svg" width="1800.000000pt" height="672.000000pt" viewBox="0 0 1800.000000 672.000000" preserveAspectRatio="xMidYMid meet"> <g transform="translate(0.000000,672.000000) scale(0.100000,-0.100000)" fill="#ffffff" stroke="none"> <path d="M0 6490 l0 -230 1605 0 c1537 1 1605 1 1614 19 6 10 8 49 6 87 -3 38 -5 133 -5 212 l0 142 -1610 0 -1610 0 0 -230z"/> <path d="M3730 6496 c0 -194 2 -225 16 -230 26 -10 4564 -7 4564 4 0 10 -154 130 -166 130 -4 0 -21 11 -38 24 -17 13 -65 40 -106 62 -41 21 -82 43 -90 49 -8 6 -42 20 -75 30 -33 11 -66 23 -73 28 -7 6 -29 13 -50 17 -20 4 -81 20 -135 34 -53 14 -119 26 -145 27 -70 1 -157 22 -155 37 2 9 -372 12 -1772 12 l-1775 0 0 -224z"/> <path d="M9302 6493 l3 -228 1380 -2 c758 -2 1383 1 1388 6 4 4 3 25 -2 47 -15 60 -91 286 -107 317 -8 16 -14 42 -14 58 l0 29 -1325 0 -1325 0 2 -227z"/> <path d="M14087 6703 c-8 -27 -57 -165 -66 -188 -5 -11 -18 -49 -29 -85 -12 -36 -28 -84 -37 -108 -8 -24 -13 -47 -10 -52 3 -6 578 -8 1388 -7 l1382 2 3 228 2 227 -1314 0 c-1242 0 -1314 -1 -1319 -17z"/> <path d="M0 5585 l0 -215 1611 2 1611 3 0 210 0 210 -1611 3 -1611 2 0 -215z"/> <path d="M3730 5585 l0 -215 2568 0 c1413 0 2571 3 2574 6 3 3 -5 35 -18 71 -13 36 -24 73 -24 82 0 9 -11 38 -24 66 -13 27 -41 85 -61 128 l-37 77 -2489 0 -2489 0 0 -215z"/> <path d="M9304 5787 c-3 -8 -4 -104 -2 -213 l3 -199 1548 -3 c993 -1 1547 1 1547 8 0 9 -10 35 -45 115 -7 17 -16 41 -18 55 -6 29 -53 170 -73 218 l-14 32 -1470 0 c-1225 0 -1471 -2 -1476 -13z"/> <path d="M13756 5757 c-9 -23 -16 -49 -16 -56 0 -7 -6 -27 -14 -44 -8 -18 -24 -62 -35 -99 -11 -36 -24 -75 -29 -85 -10 -20 -32 -85 -32 -96 0 -4 695 -7 1545 -7 l1545 0 0 215 0 215 -1474 0 -1473 0 -17 -43z"/> <path d="M945 4902 c-6 -4 -8 -83 -5 -217 l5 -210 667 -2 c367 -1 670 2 672 6 4 6 10 374 7 419 -1 9 -141 12 -668 12 -368 0 -672 -4 -678 -8z"/> <path d="M4652 4693 l3 -218 669 -3 c388 -2 673 1 678 6 5 5 9 103 9 218 l0 209 -681 3 -680 2 2 -217z"/> <path d="M7444 4897 c-2 -7 -3 -105 -2 -217 l3 -205 707 -3 c777 -3 738 -6 738 57 0 15 7 50 15 77 8 27 15 76 16 109 0 33 4 87 8 120 5 40 4 62 -3 67 -6 4 -341 8 -744 8 -585 0 -734 -3 -738 -13z"/> <path d="M10247 4903 c-4 -3 -7 -100 -7 -214 0 -179 2 -208 16 -213 9 -3 562 -6 1230 -6 l1214 0 0 26 c0 14 -5 35 -12 47 -6 12 -15 35 -19 52 -8 34 -26 86 -44 130 -20 49 -36 98 -45 133 -5 19 -11 37 -15 40 -9 9 -2309 14 -2318 5z"/> <path d="M13466 4895 c-8 -9 -20 -34 -26 -57 -7 -22 -15 -48 -20 -57 -4 -9 -16 -43 -26 -76 -10 -33 -24 -69 -31 -80 -7 -11 -13 -28 -13 -38 0 -11 -7 -34 -16 -53 -33 -68 -130 -63 1200 -64 757 0 1215 4 1231 10 l25 10 -2 207 -3 208 -1152 3 c-1032 2 -1153 1 -1167 -13z"/> <path d="M946 4012 c-4 -7 -9 -328 -6 -409 0 -10 142 -13 675 -13 371 0 675 3 675 8 2 226 2 391 1 405 -1 16 -40 17 -670 17 -369 0 -672 -4 -675 -8z"/> <path d="M4652 3802 c2 -166 6 -217 16 -216 6 1 833 2 1837 3 l1825 1 102 103 c57 57 114 121 128 141 14 21 33 45 43 54 9 9 17 20 17 25 0 5 14 26 30 47 17 21 30 43 30 49 0 8 -537 11 -2015 11 l-2015 0 2 -218z"/> <path d="M10252 4012 c-9 -7 -12 -56 -10 -213 l3 -204 672 -3 673 -2 5 22 c2 13 4 73 3 133 -1 61 -1 138 0 173 2 59 4 63 23 60 27 -4 31 -12 63 -113 14 -44 36 -111 50 -149 15 -38 26 -77 26 -88 0 -11 11 -23 26 -28 16 -7 466 -9 1241 -8 1069 3 1217 5 1223 18 4 8 12 25 18 37 7 12 16 39 21 60 11 45 72 216 91 256 15 30 35 35 44 11 3 -9 6 -98 6 -199 0 -138 3 -184 13 -186 6 -2 311 -2 677 1 l665 5 0 210 0 210 -1306 3 c-1034 2 -1308 -1 -1320 -10 -8 -7 -30 -60 -48 -118 -18 -58 -37 -112 -42 -120 -14 -23 -17 -32 -24 -72 -4 -24 -11 -38 -20 -38 -25 0 -55 38 -55 69 0 16 -7 34 -15 41 -8 7 -15 23 -15 36 0 13 -7 40 -16 61 -29 67 -33 77 -42 113 l-8 35 -1305 2 c-717 2 -1310 -1 -1317 -5z"/> <path d="M946 3122 c-4 -7 -10 -365 -7 -410 1 -10 140 -12 677 -10 l676 3 0 80 c1 44 0 140 -1 213 l-1 132 -669 0 c-369 0 -672 -4 -675 -8z"/> <path d="M4650 2915 l0 -215 2011 -2 c1106 -2 2013 1 2016 5 3 5 -2 16 -11 26 -9 10 -16 21 -16 25 0 4 -5 12 -10 19 -6 7 -33 43 -62 81 -28 38 -58 76 -67 86 -9 9 -38 40 -65 69 -27 29 -68 68 -91 86 l-42 35 -1831 0 -1832 0 0 -215z"/> <path d="M10247 3123 c-4 -3 -7 -100 -7 -215 l0 -208 678 2 677 3 0 210 0 210 -671 3 c-369 1 -674 -1 -677 -5z"/> <path d="M11950 3119 c0 -13 47 -158 66 -204 6 -16 19 -52 28 -80 9 -27 24 -69 33 -92 l16 -43 919 0 918 0 14 33 c24 55 63 166 76 212 13 46 31 97 46 127 8 14 14 33 14 42 0 15 -97 16 -1065 16 -779 0 -1065 -3 -1065 -11z"/> <path d="M14430 2915 l0 -215 680 0 680 0 -2 213 -3 212 -677 2 -678 3 0 -215z"/> <path d="M1587 2230 l-647 -5 -3 -213 -2 -212 679 2 679 3 -2 209 c-1 115 -4 213 -7 218 -3 4 -15 7 -27 6 -12 -2 -313 -5 -670 -8z"/> <path d="M4654 2231 c-2 -2 -4 -100 -4 -218 l0 -213 680 2 681 3 2 213 c1 116 0 212 -3 212 -3 0 -308 1 -678 3 -371 1 -676 0 -678 -2z"/> <path d="M10903 2233 l-662 -3 -3 -203 c-2 -111 1 -208 6 -215 7 -9 150 -12 680 -10 l671 3 3 209 c2 163 0 211 -10 217 -7 5 -15 8 -18 6 -3 -1 -303 -3 -667 -4z"/> <path d="M12353 2232 l-102 -3 11 -27 c6 -15 17 -41 24 -59 8 -17 14 -40 14 -51 0 -11 8 -35 17 -54 9 -18 22 -45 30 -60 7 -14 13 -37 13 -50 0 -13 6 -33 14 -44 8 -11 16 -33 18 -49 l3 -30 618 -3 c583 -2 617 -1 617 15 0 16 23 84 49 148 13 32 32 87 41 120 15 54 35 102 49 119 8 9 11 19 9 22 -6 5 -1251 11 -1425 6z"/> <path d="M14458 2232 l-28 -3 0 -215 0 -214 678 2 677 3 3 213 2 212 -92 0 c-51 0 -345 1 -653 2 -308 2 -572 2 -587 0z"/> <path d="M7441 2015 l2 -215 746 2 746 3 -2 30 c-7 142 -16 234 -25 257 -5 15 -13 51 -17 80 l-6 53 -723 3 -723 2 2 -215z"/> <path d="M1592 1343 l-1592 -3 0 -210 0 -210 1553 -2 c853 -1 1576 -2 1605 -3 30 0 56 3 59 8 7 12 6 404 -2 417 -3 5 -12 9 -18 8 -7 -2 -729 -4 -1605 -5z"/> <path d="M3747 1342 c-14 -3 -17 -27 -19 -205 -2 -111 -1 -205 2 -209 6 -8 4966 -11 4979 -4 7 4 16 23 90 176 17 36 31 73 31 83 0 10 6 30 14 45 7 15 17 46 21 70 l7 42 -39 0 c-1992 3 -5074 4 -5086 2z"/> <path d="M12577 1338 c-9 -6 -9 -12 0 -26 6 -11 15 -37 19 -58 3 -22 10 -44 15 -49 9 -12 66 -173 79 -224 16 -62 8 -61 323 -62 202 -1 291 2 301 10 8 7 16 26 19 44 2 18 14 57 27 87 12 30 26 69 31 85 5 17 13 39 17 50 19 43 44 125 40 135 -4 12 -852 20 -871 8z"/> <path d="M14502 1342 l-72 -3 2 -210 3 -209 1140 -1 1140 -1 0 211 0 211 -1070 3 c-588 1 -1103 1 -1143 -1z"/> <path d="M9304 1327 c-2 -7 -3 -101 -2 -210 l3 -197 1138 -1 c626 0 1142 3 1147 6 11 7 14 373 4 399 -6 14 -116 16 -1145 16 -916 0 -1141 -3 -1145 -13z"/> <path d="M17503 706 c-111 -41 -171 -93 -215 -185 -67 -142 -43 -275 70 -393 70 -72 138 -100 242 -100 57 0 100 6 130 18 47 18 160 102 160 118 0 5 6 17 13 25 34 40 50 112 44 200 -8 123 -20 152 -98 230 -49 50 -84 70 -168 95 -70 21 -103 20 -178 -8z m208 -37 c29 -11 69 -33 90 -50 47 -37 109 -129 109 -163 0 -13 5 -37 10 -52 20 -52 -23 -183 -79 -239 -64 -65 -84 -77 -171 -103 -41 -13 -118 -13 -126 -1 -3 5 -15 9 -27 9 -59 1 -177 109 -213 195 -22 54 -19 177 7 228 29 56 84 123 117 141 115 64 188 73 283 35z"/> <path d="M17462 373 l3 -167 30 -1 c30 0 30 1 35 60 l5 60 34 0 c30 0 37 -5 58 -44 28 -54 51 -81 69 -81 24 0 26 20 5 54 -24 39 -27 88 -7 106 27 22 38 75 25 118 -15 50 -46 62 -167 62 l-92 0 2 -167z m189 111 c12 -11 19 -30 19 -55 0 -47 -22 -61 -88 -57 l-47 3 -3 53 c-4 69 9 86 61 79 21 -3 47 -13 58 -23z"/> <path d="M0 245 l0 -215 1609 0 c1278 0 1610 3 1613 13 2 6 2 103 0 215 l-4 202 -1609 0 -1609 0 0 -215z"/> <path d="M3743 454 c-10 -4 -13 -57 -13 -215 l0 -209 1826 0 c1624 0 1836 2 1913 16 47 9 100 20 116 26 17 6 48 14 70 18 41 8 84 22 142 47 17 7 35 13 40 13 15 0 197 91 241 121 24 16 45 29 48 29 11 0 194 142 194 150 0 9 -4556 12 -4577 4z"/> <path d="M9304 451 c-2 -2 -4 -96 -4 -207 0 -184 2 -204 18 -211 9 -4 526 -7 1149 -5 l1132 2 0 203 c0 111 -3 207 -7 212 -7 10 -2278 16 -2288 6z"/> <path d="M12886 453 c-7 -7 18 -87 97 -303 3 -8 8 -27 11 -42 7 -31 36 -39 36 -10 0 10 18 69 41 132 46 131 69 200 69 215 0 10 -245 17 -254 8z"/> <path d="M14432 242 l3 -212 1140 0 1140 0 0 210 0 211 -1143 2 -1142 2 2 -213z"/> </g> </svg>